<svg xmlns="http://www.w3.org/2000/svg" xmlns:xlink="http://www.w3.org/1999/xlink" width="500" zoomAndPan="magnify" viewBox="0 0 375 93.749996" height="125" preserveAspectRatio="xMidYMid meet" version="1.0"><defs><g/><clipPath id="d65ae41132"><path d="M 9.847656 0 L 73.429688 0 L 73.429688 93.5 L 9.847656 93.5 Z M 9.847656 0 " clip-rule="nonzero"/></clipPath></defs><g clip-path="url(#d65ae41132)"><path fill="#948bfc" d="M 50.578125 0.015625 L 62.589844 0.015625 C 63.960938 0.015625 65.074219 1.125 65.082031 2.496094 C 65.082031 2.503906 65.082031 2.511719 65.082031 2.519531 L 65.648438 10.644531 C 65.664062 10.820312 65.785156 10.96875 65.957031 11.011719 C 68.542969 11.691406 71.023438 12.640625 73.355469 13.832031 C 73.359375 13.832031 73.359375 13.832031 73.359375 13.835938 C 73.582031 13.949219 73.648438 14.238281 73.496094 14.4375 L 67.808594 21.910156 C 67.695312 22.058594 67.492188 22.113281 67.320312 22.035156 C 66.351562 21.613281 65.351562 21.246094 64.324219 20.941406 C 63.011719 20.546875 61.652344 20.25 60.265625 20.058594 C 59.433594 19.945312 58.589844 19.871094 57.734375 19.835938 C 57.351562 19.820312 56.96875 19.8125 56.585938 19.8125 C 55.847656 19.8125 55.113281 19.839844 54.390625 19.898438 C 46.5 20.535156 39.574219 24.570312 35.070312 30.535156 C 31.664062 35.046875 29.644531 40.664062 29.644531 46.75 C 29.644531 61.628906 41.707031 73.691406 56.585938 73.691406 C 60.402344 73.691406 64.03125 72.894531 67.320312 71.464844 C 67.496094 71.390625 67.695312 71.441406 67.808594 71.59375 L 68.34375 72.292969 L 73.492188 79.058594 C 73.644531 79.261719 73.582031 79.550781 73.355469 79.667969 C 73.328125 79.683594 73.300781 79.695312 73.273438 79.710938 C 73.238281 79.730469 73.203125 79.75 73.164062 79.765625 C 71.996094 80.355469 70.789062 80.886719 69.550781 81.347656 C 68.378906 81.785156 67.179688 82.167969 65.957031 82.488281 C 65.785156 82.53125 65.664062 82.679688 65.648438 82.855469 L 65.082031 90.980469 C 65.082031 90.988281 65.082031 90.996094 65.082031 91.003906 C 65.074219 92.375 63.960938 93.484375 62.589844 93.484375 L 50.578125 93.484375 C 49.207031 93.484375 48.09375 92.375 48.089844 91.003906 C 48.089844 90.996094 48.089844 90.988281 48.089844 90.980469 L 47.519531 82.855469 C 47.507812 82.679688 47.386719 82.53125 47.214844 82.488281 C 43.921875 81.628906 40.808594 80.324219 37.941406 78.644531 C 37.789062 78.554688 37.601562 78.574219 37.46875 78.6875 L 31.316406 84.035156 C 31.3125 84.042969 31.304688 84.046875 31.300781 84.050781 C 30.328125 85.015625 28.757812 85.011719 27.785156 84.042969 L 19.292969 75.550781 C 18.324219 74.578125 18.320312 73.007812 19.285156 72.035156 C 19.289062 72.03125 19.292969 72.023438 19.300781 72.019531 L 24.648438 65.867188 C 24.761719 65.734375 24.777344 65.542969 24.691406 65.390625 C 23.011719 62.523438 21.707031 59.414062 20.847656 56.121094 C 20.800781 55.949219 20.65625 55.828125 20.480469 55.816406 L 12.351562 55.246094 C 12.34375 55.246094 12.335938 55.246094 12.332031 55.246094 C 10.960938 55.242188 9.851562 54.128906 9.851562 52.757812 L 9.851562 40.746094 C 9.851562 39.371094 10.960938 38.257812 12.332031 38.253906 C 12.335938 38.253906 12.34375 38.253906 12.351562 38.253906 L 20.480469 37.683594 C 20.65625 37.671875 20.800781 37.550781 20.847656 37.378906 C 21.707031 34.085938 23.011719 30.976562 24.691406 28.109375 C 24.777344 27.957031 24.761719 27.765625 24.648438 27.632812 L 23.746094 26.59375 L 19.300781 21.480469 C 19.292969 21.476562 19.289062 21.46875 19.285156 21.464844 C 18.320312 20.492188 18.324219 18.921875 19.292969 17.953125 L 22.609375 14.632812 L 27.785156 9.457031 C 28.757812 8.488281 30.328125 8.484375 31.300781 9.449219 C 31.304688 9.457031 31.3125 9.460938 31.316406 9.464844 L 37.46875 14.8125 C 37.601562 14.925781 37.789062 14.945312 37.941406 14.855469 C 40.417969 13.40625 43.078125 12.234375 45.878906 11.390625 C 46.320312 11.253906 46.765625 11.128906 47.214844 11.011719 C 47.386719 10.96875 47.507812 10.820312 47.519531 10.644531 L 47.605469 9.441406 L 47.886719 5.425781 L 48.089844 2.519531 C 48.089844 2.511719 48.089844 2.503906 48.089844 2.496094 C 48.09375 1.125 49.207031 0.015625 50.578125 0.015625 " fill-opacity="1" fill-rule="nonzero"/></g><g fill="#fcfbfc" fill-opacity="1"><g transform="translate(69.120877, 64.02097)"><g><path d="M 12.390625 -7.015625 L 24.3125 -7.015625 L 24.3125 0 L 3.296875 0 L 3.296875 -37.34375 L 12.390625 -37.34375 Z M 12.390625 -7.015625 "/></g></g></g><g fill="#fcfbfc" fill-opacity="1"><g transform="translate(94.486802, 64.02097)"><g><path d="M 1.484375 -14.890625 C 1.484375 -17.941406 2.0625 -20.617188 3.21875 -22.921875 C 4.375 -25.222656 5.941406 -26.992188 7.921875 -28.234375 C 9.910156 -29.484375 12.128906 -30.109375 14.578125 -30.109375 C 16.671875 -30.109375 18.503906 -29.679688 20.078125 -28.828125 C 21.648438 -27.972656 22.863281 -26.859375 23.71875 -25.484375 L 23.71875 -29.671875 L 32.8125 -29.671875 L 32.8125 0 L 23.71875 0 L 23.71875 -4.203125 C 22.832031 -2.816406 21.597656 -1.695312 20.015625 -0.84375 C 18.441406 0 16.609375 0.421875 14.515625 0.421875 C 12.109375 0.421875 9.910156 -0.203125 7.921875 -1.453125 C 5.941406 -2.710938 4.375 -4.503906 3.21875 -6.828125 C 2.0625 -9.148438 1.484375 -11.835938 1.484375 -14.890625 Z M 23.71875 -14.84375 C 23.71875 -17.113281 23.085938 -18.898438 21.828125 -20.203125 C 20.578125 -21.515625 19.046875 -22.171875 17.234375 -22.171875 C 15.421875 -22.171875 13.882812 -21.523438 12.625 -20.234375 C 11.375 -18.941406 10.75 -17.160156 10.75 -14.890625 C 10.75 -12.617188 11.375 -10.816406 12.625 -9.484375 C 13.882812 -8.160156 15.421875 -7.5 17.234375 -7.5 C 19.046875 -7.5 20.578125 -8.15625 21.828125 -9.46875 C 23.085938 -10.78125 23.71875 -12.570312 23.71875 -14.84375 Z M 23.71875 -14.84375 "/></g></g></g><g fill="#fcfbfc" fill-opacity="1"><g transform="translate(130.5947, 64.02097)"><g><path d="M 21.375 -30 C 24.851562 -30 27.628906 -28.875 29.703125 -26.625 C 31.773438 -24.375 32.8125 -21.28125 32.8125 -17.34375 L 32.8125 0 L 23.78125 0 L 23.78125 -16.109375 C 23.78125 -18.097656 23.265625 -19.640625 22.234375 -20.734375 C 21.203125 -21.835938 19.816406 -22.390625 18.078125 -22.390625 C 16.347656 -22.390625 14.96875 -21.835938 13.9375 -20.734375 C 12.90625 -19.640625 12.390625 -18.097656 12.390625 -16.109375 L 12.390625 0 L 3.296875 0 L 3.296875 -29.671875 L 12.390625 -29.671875 L 12.390625 -25.75 C 13.316406 -27.050781 14.554688 -28.082031 16.109375 -28.84375 C 17.671875 -29.613281 19.425781 -30 21.375 -30 Z M 21.375 -30 "/></g></g></g><g fill="#fcfbfc" fill-opacity="1"><g transform="translate(166.436713, 64.02097)"><g><path d="M 1.484375 -14.890625 C 1.484375 -17.941406 2.0625 -20.617188 3.21875 -22.921875 C 4.375 -25.222656 5.941406 -26.992188 7.921875 -28.234375 C 9.910156 -29.484375 12.128906 -30.109375 14.578125 -30.109375 C 16.523438 -30.109375 18.304688 -29.695312 19.921875 -28.875 C 21.535156 -28.0625 22.800781 -26.960938 23.71875 -25.578125 L 23.71875 -39.359375 L 32.8125 -39.359375 L 32.8125 0 L 23.71875 0 L 23.71875 -4.25 C 22.863281 -2.832031 21.648438 -1.695312 20.078125 -0.84375 C 18.503906 0 16.671875 0.421875 14.578125 0.421875 C 12.128906 0.421875 9.910156 -0.203125 7.921875 -1.453125 C 5.941406 -2.710938 4.375 -4.503906 3.21875 -6.828125 C 2.0625 -9.148438 1.484375 -11.835938 1.484375 -14.890625 Z M 23.71875 -14.84375 C 23.71875 -17.113281 23.085938 -18.898438 21.828125 -20.203125 C 20.578125 -21.515625 19.046875 -22.171875 17.234375 -22.171875 C 15.421875 -22.171875 13.882812 -21.523438 12.625 -20.234375 C 11.375 -18.941406 10.75 -17.160156 10.75 -14.890625 C 10.75 -12.617188 11.375 -10.816406 12.625 -9.484375 C 13.882812 -8.160156 15.421875 -7.5 17.234375 -7.5 C 19.046875 -7.5 20.578125 -8.15625 21.828125 -9.46875 C 23.085938 -10.78125 23.71875 -12.570312 23.71875 -14.84375 Z M 23.71875 -14.84375 "/></g></g></g><g fill="#fcfbfc" fill-opacity="1"><g transform="translate(202.544611, 64.02097)"><g><path d="M 21.546875 -30 C 24.941406 -30 27.664062 -28.875 29.71875 -26.625 C 31.78125 -24.375 32.8125 -21.28125 32.8125 -17.34375 L 32.8125 0 L 23.78125 0 L 23.78125 -16.109375 C 23.78125 -18.097656 23.265625 -19.640625 22.234375 -20.734375 C 21.203125 -21.835938 19.816406 -22.390625 18.078125 -22.390625 C 16.347656 -22.390625 14.96875 -21.835938 13.9375 -20.734375 C 12.90625 -19.640625 12.390625 -18.097656 12.390625 -16.109375 L 12.390625 0 L 3.296875 0 L 3.296875 -39.359375 L 12.390625 -39.359375 L 12.390625 -25.6875 C 13.316406 -27 14.578125 -28.046875 16.171875 -28.828125 C 17.765625 -29.609375 19.554688 -30 21.546875 -30 Z M 21.546875 -30 "/></g></g></g><g fill="#fcfbfc" fill-opacity="1"><g transform="translate(238.386624, 64.02097)"><g><path d="M 15.375 0.421875 C 12.78125 0.421875 10.472656 -0.0195312 8.453125 -0.90625 C 6.429688 -1.789062 4.835938 -3.003906 3.671875 -4.546875 C 2.503906 -6.085938 1.847656 -7.816406 1.703125 -9.734375 L 10.6875 -9.734375 C 10.789062 -8.703125 11.269531 -7.867188 12.125 -7.234375 C 12.976562 -6.597656 14.023438 -6.28125 15.265625 -6.28125 C 16.398438 -6.28125 17.273438 -6.5 17.890625 -6.9375 C 18.515625 -7.382812 18.828125 -7.960938 18.828125 -8.671875 C 18.828125 -9.523438 18.382812 -10.15625 17.5 -10.5625 C 16.613281 -10.96875 15.175781 -11.414062 13.1875 -11.90625 C 11.0625 -12.40625 9.289062 -12.929688 7.875 -13.484375 C 6.457031 -14.035156 5.234375 -14.90625 4.203125 -16.09375 C 3.171875 -17.28125 2.65625 -18.882812 2.65625 -20.90625 C 2.65625 -22.601562 3.125 -24.148438 4.0625 -25.546875 C 5.007812 -26.953125 6.394531 -28.0625 8.21875 -28.875 C 10.039062 -29.695312 12.210938 -30.109375 14.734375 -30.109375 C 18.453125 -30.109375 21.382812 -29.1875 23.53125 -27.34375 C 25.675781 -25.5 26.910156 -23.050781 27.234375 -20 L 18.828125 -20 C 18.679688 -21.03125 18.226562 -21.84375 17.46875 -22.4375 C 16.707031 -23.039062 15.707031 -23.34375 14.46875 -23.34375 C 13.40625 -23.34375 12.585938 -23.140625 12.015625 -22.734375 C 11.453125 -22.328125 11.171875 -21.769531 11.171875 -21.0625 C 11.171875 -20.207031 11.617188 -19.566406 12.515625 -19.140625 C 13.421875 -18.722656 14.832031 -18.300781 16.75 -17.875 C 18.945312 -17.300781 20.738281 -16.738281 22.125 -16.1875 C 23.507812 -15.644531 24.722656 -14.757812 25.765625 -13.53125 C 26.816406 -12.3125 27.359375 -10.671875 27.390625 -8.609375 C 27.390625 -6.878906 26.898438 -5.332031 25.921875 -3.96875 C 24.953125 -2.601562 23.550781 -1.53125 21.71875 -0.75 C 19.894531 0.03125 17.78125 0.421875 15.375 0.421875 Z M 15.375 0.421875 "/></g></g></g><g fill="#fcfbfc" fill-opacity="1"><g transform="translate(268.059981, 64.02097)"><g><path d="M 16.8125 0.421875 C 13.90625 0.421875 11.289062 -0.195312 8.96875 -1.4375 C 6.644531 -2.675781 4.816406 -4.445312 3.484375 -6.75 C 2.148438 -9.0625 1.484375 -11.757812 1.484375 -14.84375 C 1.484375 -17.882812 2.15625 -20.566406 3.5 -22.890625 C 4.851562 -25.210938 6.695312 -26.992188 9.03125 -28.234375 C 11.375 -29.484375 14 -30.109375 16.90625 -30.109375 C 19.820312 -30.109375 22.445312 -29.484375 24.78125 -28.234375 C 27.125 -26.992188 28.96875 -25.210938 30.3125 -22.890625 C 31.664062 -20.566406 32.34375 -17.882812 32.34375 -14.84375 C 32.34375 -11.789062 31.660156 -9.101562 30.296875 -6.78125 C 28.929688 -4.457031 27.066406 -2.675781 24.703125 -1.4375 C 22.347656 -0.195312 19.71875 0.421875 16.8125 0.421875 Z M 16.8125 -7.453125 C 18.539062 -7.453125 20.015625 -8.085938 21.234375 -9.359375 C 22.460938 -10.640625 23.078125 -12.46875 23.078125 -14.84375 C 23.078125 -17.21875 22.484375 -19.039062 21.296875 -20.3125 C 20.109375 -21.59375 18.644531 -22.234375 16.90625 -22.234375 C 15.132812 -22.234375 13.664062 -21.601562 12.5 -20.34375 C 11.332031 -19.082031 10.75 -17.25 10.75 -14.84375 C 10.75 -12.46875 11.320312 -10.640625 12.46875 -9.359375 C 13.625 -8.085938 15.070312 -7.453125 16.8125 -7.453125 Z M 16.8125 -7.453125 "/></g></g></g><g fill="#fcfbfc" fill-opacity="1"><g transform="translate(301.934404, 64.02097)"><g><path d="M 18.1875 -22.125 L 13.296875 -22.125 L 13.296875 0 L 4.203125 0 L 4.203125 -22.125 L 0.90625 -22.125 L 0.90625 -29.671875 L 4.203125 -29.671875 L 4.203125 -30.53125 C 4.203125 -34.1875 5.25 -36.960938 7.34375 -38.859375 C 9.4375 -40.753906 12.503906 -41.703125 16.546875 -41.703125 C 17.210938 -41.703125 17.707031 -41.679688 18.03125 -41.640625 L 18.03125 -33.9375 C 16.289062 -34.039062 15.066406 -33.789062 14.359375 -33.1875 C 13.648438 -32.582031 13.296875 -31.5 13.296875 -29.9375 L 13.296875 -29.671875 L 18.1875 -29.671875 Z M 18.1875 -22.125 "/></g></g></g><g fill="#fcfbfc" fill-opacity="1"><g transform="translate(321.078506, 64.02097)"><g><path d="M 19.84375 -7.71875 L 19.84375 0 L 15.21875 0 C 11.914062 0 9.34375 -0.804688 7.5 -2.421875 C 5.65625 -4.035156 4.734375 -6.664062 4.734375 -10.3125 L 4.734375 -22.125 L 1.109375 -22.125 L 1.109375 -29.671875 L 4.734375 -29.671875 L 4.734375 -36.90625 L 13.828125 -36.90625 L 13.828125 -29.671875 L 19.78125 -29.671875 L 19.78125 -22.125 L 13.828125 -22.125 L 13.828125 -10.21875 C 13.828125 -9.320312 14.039062 -8.679688 14.46875 -8.296875 C 14.894531 -7.910156 15.601562 -7.71875 16.59375 -7.71875 Z M 19.84375 -7.71875 "/></g></g></g></svg>